<?xml version="1.0" encoding="UTF-8" standalone="no"?>
<svg
   viewBox="0 0 24 24"
   width="24"
   height="24"
   version="1.1"
   id="svg1"
   sodipodi:docname="system-switch-user.svg"
   inkscape:version="1.3.2 (091e20ef0f, 2023-11-25)"
   xmlns:inkscape="http://www.inkscape.org/namespaces/inkscape"
   xmlns:sodipodi="http://sodipodi.sourceforge.net/DTD/sodipodi-0.dtd"
   xmlns="http://www.w3.org/2000/svg"
   xmlns:svg="http://www.w3.org/2000/svg">
  <sodipodi:namedview
     id="namedview1"
     pagecolor="#ffffff"
     bordercolor="#000000"
     borderopacity="0.25"
     inkscape:showpageshadow="2"
     inkscape:pageopacity="0.0"
     inkscape:pagecheckerboard="0"
     inkscape:deskcolor="#d1d1d1"
     inkscape:zoom="11.298977"
     inkscape:cx="10.531927"
     inkscape:cy="-3.4073881"
     inkscape:window-width="1920"
     inkscape:window-height="994"
     inkscape:window-x="0"
     inkscape:window-y="0"
     inkscape:window-maximized="1"
     inkscape:current-layer="svg1" />
  <defs
     id="defs3051">
    <style
       type="text/css"
       id="current-color-scheme">.ColorScheme-Text { color: #fcfcfc; } </style>
  </defs>
  <path
     style="fill:none;stroke-width:1.09091"
     d="M 0,0 V 24 H 24 V 0 Z"
     id="path79" />
  <path
     d="m 18.749996,10.714378 c 0,-0.101272 -0.04712,-0.196686 -0.128176,-0.257433 L 14.764331,7.5642912 c -0.09791,-0.072967 -0.227464,-0.084894 -0.336463,-0.030292 -0.108669,0.054254 -0.177729,0.1658488 -0.177729,0.2876637 v 1.285625 h -3.857391 c -0.177435,0 -0.321435,0.143982 -0.321435,0.321393 0,0.1774154 0.144023,0.3214086 0.321435,0.3214086 h 4.178828 c 0.17739,0 0.321404,-0.1440006 0.321404,-0.3214086 V 8.4644736 l 2.999759,2.2498254 -2.999759,2.249844 v -0.964227 c 0,-0.177417 -0.144014,-0.321397 -0.321404,-0.321397 H 9.7497661 v -1.285617 c 0,-0.12171 -0.069152,-0.233343 -0.1776828,-0.287668 -0.1086672,-0.05471 -0.2391748,-0.0428 -0.3365621,0.0303 l -3.8573162,2.89264 c -0.081008,0.06078 -0.1282051,0.1562 -0.1282051,0.257446 0,0.101188 0.047104,0.196704 0.1282051,0.257446 l 3.857249,2.892641 c 0.097912,0.07298 0.2276248,0.08492 0.3365998,0.03023 0.1086298,-0.05425 0.1776824,-0.165835 0.1776824,-0.287648 v -1.285617 h 3.8574508 c 0.177404,0 0.32142,-0.144 0.32142,-0.321412 0,-0.1774 -0.144016,-0.321396 -0.32142,-0.321396 H 9.4283388 c -0.1773974,0 -0.3214048,0.144001 -0.3214048,0.321396 v 0.964217 L 6.1071898,13.285672 9.106934,11.035849 v 0.964209 c 0,0.177413 0.1440147,0.321408 0.3214048,0.321408 h 4.8217182 v 1.285612 c 0,0.121718 0.06912,0.233331 0.177732,0.287655 0.10867,0.05467 0.23921,0.04279 0.33651,-0.03026 l 3.857447,-2.892656 c 0.08101,-0.06078 0.128202,-0.156211 0.128202,-0.257443 z"
     id="path1-7"
     style="fill:#cd87de;fill-opacity:1;stroke-width:0.321422" />
  <path
     d="M 5.6314381,5.6440881 C 2.0941474,9.1836218 2.1230899,14.960999 5.7182593,18.463892 9.0669842,21.726707 14.463352,21.860065 17.958292,18.754615 21.020599,16.033602 21.833308,11.698431 20.110488,8.1186908 19.903708,7.689057 19.362404,7.5415491 18.955049,7.7890013 18.589821,8.0108926 18.46637,8.4720032 18.649978,8.8580707 c 1.41951,2.9847093 0.691154,6.6027013 -1.938023,8.8103973 -2.66678,2.239296 -6.623472,2.276971 -9.3301901,0.08615 C 3.9296815,14.960503 3.7318769,9.86015 6.7883728,6.8017296 9.0158786,4.5728016 12.360808,4.022739 15.150759,5.3539283 c 0.383519,0.1829819 0.841851,0.057102 1.062359,-0.3063465 l 0.0018,-0.00245 C 16.461179,4.6388111 16.316078,4.0982608 15.88813,3.891798 12.470672,2.2431692 8.3634239,2.9104429 5.6314606,5.6441282 Z"
     id="path1-0-9-9-6-7"
     style="fill:#cd87de;fill-opacity:1;stroke-width:0.327328" />
</svg>
