<?xml version="1.0" encoding="UTF-8" standalone="no"?>
<svg
   viewBox="0 0 24.000008 24.000008"
   width="24.000008"
   height="24.000008"
   version="1.1"
   id="svg1"
   sodipodi:docname="system-shutdown.svg"
   inkscape:version="1.3.2 (091e20ef0f, 2023-11-25)"
   xmlns:inkscape="http://www.inkscape.org/namespaces/inkscape"
   xmlns:sodipodi="http://sodipodi.sourceforge.net/DTD/sodipodi-0.dtd"
   xmlns="http://www.w3.org/2000/svg"
   xmlns:svg="http://www.w3.org/2000/svg">
  <sodipodi:namedview
     id="namedview1"
     pagecolor="#ffffff"
     bordercolor="#000000"
     borderopacity="0.25"
     inkscape:showpageshadow="2"
     inkscape:pageopacity="0.0"
     inkscape:pagecheckerboard="0"
     inkscape:deskcolor="#d1d1d1"
     inkscape:zoom="7.9895833"
     inkscape:cx="10.764016"
     inkscape:cy="10.576271"
     inkscape:window-width="1920"
     inkscape:window-height="994"
     inkscape:window-x="0"
     inkscape:window-y="0"
     inkscape:window-maximized="1"
     inkscape:current-layer="svg1" />
  <defs
     id="defs3051">
    <style
       type="text/css"
       id="current-color-scheme">.ColorScheme-Text { color: #fcfcfc; } </style>
  </defs>
  <path
     style="fill:none;stroke-width:1.09091"
     d="M 0,0 V 24.000007 H 24.000007 V 0 Z"
     id="path49" />
  <path
     d="m 5.6314604,5.6439464 c -3.5373194,3.5395659 -3.5083787,9.3169986 0.08682,12.8199346 3.3487588,3.26283 8.7451706,3.396192 12.2401516,0.290715 3.062335,-2.721035 3.875054,-7.056245 2.152211,-10.636018 -0.206777,-0.4296412 -0.748089,-0.5771525 -1.15545,-0.3296955 -0.365238,0.2218896 -0.488683,0.6830089 -0.305075,1.0690827 1.419521,2.9847378 0.691159,6.6027648 -1.938025,8.8104708 -2.666825,2.239319 -6.623544,2.276989 -9.3302887,0.08616 C 3.9296882,14.960445 3.7318815,9.8600485 6.7884038,6.8016041 9.0159298,4.5726521 12.360893,4.0225826 15.150868,5.353784 c 0.383528,0.1829864 0.841857,0.057079 1.062366,-0.3063476 l 0.0018,-0.00224 C 16.461542,4.6388263 16.316442,4.0982742 15.888495,3.8918044 12.470979,2.2431623 8.3636844,2.910443 5.6316939,5.6441568 Z"
     id="path1-0-4"
     style="fill:#c83771;stroke-width:0.32733" />
  <path
     d="m 8.0229268,12.611639 c -0.014362,-0.08645 -0.026091,-0.173721 -0.035198,-0.261791 0.00564,0.05234 0.010449,0.103758 0.016105,0.15608 -0.040509,-0.397601 -0.030489,-0.799202 0.028048,-1.194403 -0.00824,0.05199 -0.015615,0.103123 -0.023866,0.15511 0.061215,-0.397749 0.1734559,-0.784685 0.3348144,-1.153913 -0.021217,0.04905 -0.042442,0.09813 -0.063615,0.145456 C 8.444176,10.08382 8.6572784,9.7315123 8.9139353,9.4106975 8.8798406,9.4533755 8.8448603,9.4968905 8.8107282,9.5395181 9.0700169,9.2179076 9.3692529,8.9329127 9.7030891,8.6896482 c -0.044273,0.03195 -0.089409,0.0648 -0.1336862,0.096789 0.3364711,-0.244075 0.7030921,-0.4421892 1.0910511,-0.5893338 -0.05003,0.018828 -0.100052,0.037576 -0.148342,0.056403 0.370367,-0.1388795 0.757774,-0.2295024 1.151821,-0.2721329 -0.05234,0.00601 -0.10372,0.010501 -0.15603,0.0162 0.394847,-0.039976 0.7928,-0.030375 1.185186,0.028726 -0.05195,-0.00818 -0.103079,-0.015526 -0.155038,-0.023776 0.391488,0.059925 0.773024,0.1701017 1.137754,0.326816 -0.04902,-0.021222 -0.09806,-0.042381 -0.145347,-0.063522 0.380153,0.1657818 0.738188,0.381483 1.061241,0.6406857 -0.04262,-0.034056 -0.0861,-0.069075 -0.128701,-0.1031562 0.321309,0.2591649 0.605973,0.5583203 0.848915,0.8921176 -0.03192,-0.044244 -0.06472,-0.089397 -0.09666,-0.1336733 0.243739,0.336438 0.441525,0.7030637 0.587455,1.0919197 -0.01878,-0.05002 -0.03749,-0.100066 -0.05629,-0.148359 0.138557,0.370413 0.228877,0.757919 0.270324,1.152938 -0.0057,-0.05234 -0.01044,-0.103756 -0.01608,-0.156082 0.03972,0.394977 0.02976,0.793097 -0.02958,1.185671 0.0085,-0.05198 0.01561,-0.103127 0.02388,-0.155113 -0.06022,0.391682 -0.170566,0.773449 -0.328322,1.137542 0.02119,-0.04906 0.0424,-0.09813 0.06363,-0.145451 -0.165988,0.380418 -0.382694,0.73786 -0.64203,1.06122 0.03408,-0.04265 0.06913,-0.08617 0.1032,-0.128834 -0.259279,0.321617 -0.559363,0.605717 -0.892356,0.849873 0.04424,-0.03195 0.08942,-0.06481 0.133693,-0.09678 -0.332022,0.23983 -0.693381,0.436331 -1.076973,0.582714 0.05,-0.01879 0.100053,-0.03755 0.148341,-0.05642 -0.375663,0.142231 -0.76923,0.235314 -1.16848,0.277814 0.05232,-0.0057 0.103719,-0.01051 0.15603,-0.01622 -0.396586,0.03998 -0.794545,0.03027 -1.18866,-0.02884 0.05196,0.0083 0.103078,0.01553 0.155039,0.02379 -0.100448,-0.01637 -0.200849,-0.03448 -0.29943,-0.056 0.08441,0.34561 0.168823,0.691226 0.252376,1.03595 0.0045,-0.0045 0.0098,-0.0093 0.01425,-0.01355 0.113987,-0.108561 0.186771,-0.272928 0.191563,-0.43024 0.004,-0.151256 -0.05862,-0.332813 -0.169887,-0.43902 -0.114638,-0.109762 -0.265567,-0.193451 -0.429942,-0.191353 -0.163525,0.0031 -0.317837,0.05489 -0.438956,0.170263 -0.0045,0.0044 -0.0098,0.0093 -0.01426,0.01358 -0.156739,0.149273 -0.224135,0.376398 -0.174617,0.587212 0.04795,0.203826 0.216875,0.402761 0.427846,0.44963 0.912295,0.198699 1.882226,0.177869 2.773767,-0.116233 0.810019,-0.267375 1.557489,-0.711096 2.154452,-1.325463 0.596926,-0.612637 1.046043,-1.364537 1.289972,-2.185786 0.251456,-0.84543 0.281172,-1.757984 0.09486,-2.619241 C 16.948487,10.030915 16.54808,9.2479604 15.995015,8.5900245 15.721418,8.2650543 15.401555,7.9824516 15.060076,7.7306145 14.715159,7.4769474 14.337437,7.2833932 13.942449,7.1198543 13.53712,6.9525954 13.117851,6.8563095 12.685547,6.7945015 c -0.445278,-0.064725 -0.887235,-0.0528 -1.331852,-0.0045 -0.384462,0.042 -0.763193,0.1328261 -1.124777,0.2684422 C 9.827864,7.2078825 9.4460332,7.3882366 9.0913364,7.6309912 8.7401623,7.8721033 8.411777,8.1407252 8.12651,8.4582339 7.8421368,8.7748943 7.586608,9.120092 7.3851051,9.4952975 6.9674652,10.27493 6.7402907,11.1566 6.7503522,12.043156 c 0.0025,0.284478 0.03096,0.571332 0.077005,0.851649 0.024927,0.151078 0.1548735,0.309053 0.2816486,0.385193 0.1267964,0.07611 0.3136785,0.111981 0.4581559,0.07112 0.1549867,-0.04408 0.3068204,-0.136069 0.3852335,-0.282032 0.078409,-0.145961 0.096845,-0.292505 0.07053,-0.457533 z"
     id="path2-2-8"
     style="fill:#c83771;stroke-width:0.0122944" />
  <path
     d="m 4.8157415,19.667782 7.0586435,-6.49804 c 0.174051,-0.160228 0.188447,-0.630185 -0.09195,-0.934773 -0.2804,-0.304591 -0.80509,-0.278276 -0.979141,-0.118047 l -7.0034926,6.447274 c -0.1740518,0.160225 -0.1884174,0.63015 0.091983,0.934742 0.2803979,0.304587 0.7499055,0.329072 0.9239571,0.168844 z"
     id="path2653-4-7"
     style="fill:#c83771;fill-opacity:0.986348;stroke-width:0.283472"
     sodipodi:nodetypes="sssssss" />
</svg>
