<?xml version="1.0" encoding="UTF-8" standalone="no"?>
<svg
   viewBox="0 0 24 24"
   width="24"
   height="24"
   version="1.1"
   id="svg3"
   sodipodi:docname="system-suspend-hibernate.svg"
   inkscape:version="1.3.2 (091e20ef0f, 2023-11-25)"
   xmlns:inkscape="http://www.inkscape.org/namespaces/inkscape"
   xmlns:sodipodi="http://sodipodi.sourceforge.net/DTD/sodipodi-0.dtd"
   xmlns="http://www.w3.org/2000/svg"
   xmlns:svg="http://www.w3.org/2000/svg">
  <defs
     id="defs3" />
  <sodipodi:namedview
     id="namedview3"
     pagecolor="#ffffff"
     bordercolor="#000000"
     borderopacity="0.25"
     inkscape:showpageshadow="2"
     inkscape:pageopacity="0.0"
     inkscape:pagecheckerboard="0"
     inkscape:deskcolor="#d1d1d1"
     inkscape:zoom="7.9895833"
     inkscape:cx="11.38983"
     inkscape:cy="10.576271"
     inkscape:window-width="1920"
     inkscape:window-height="994"
     inkscape:window-x="0"
     inkscape:window-y="0"
     inkscape:window-maximized="1"
     inkscape:current-layer="svg3" />
  <style
     type="text/css"
     id="current-color-scheme">.ColorScheme-Text { color: #fcfcfc; } </style>
  <path
     style="fill:none;stroke-width:1.09091"
     d="M 0,0 V 24 H 24 V 0 Z"
     id="path49-1" />
  <path
     id="path891-3-2"
     class="ColorScheme-Text"
     d="M 8.7001489,6.4719984 8.2498384,6.7316207 9.3644136,8.6615044 7.4872288,8.1584904 7.3533474,8.6604919 9.7315129,9.2973603 11.324712,12.057833 H 8.1383103 l -1.7412525,-1.741261 -0.367128,0.367115 1.3741668,1.374146 h -2.229074 v 0.519239 h 2.229074 l -1.3741668,1.37415 0.367128,0.367088 1.7412516,-1.741238 h 3.1864026 l -1.5931991,2.760452 -2.3781655,0.636862 0.1338814,0.502008 1.8771848,-0.502999 -1.1145752,1.92987 0.4503105,0.259616 1.1145176,-1.929879 0.5030015,1.877158 0.500998,-0.134895 -0.636912,-2.378108 1.743308,-3.020085 1.743305,3.020085 -0.636898,2.378108 0.50098,0.134895 0.503024,-1.877158 1.114508,1.929879 0.4503,-0.259616 -1.114572,-1.92987 1.877193,0.502999 0.133902,-0.502008 -2.378178,-0.636862 -1.593203,-2.760452 h 3.186402 l 1.741225,1.741238 0.367159,-0.367088 -1.37416,-1.37415 h 2.229065 v -0.519239 h -2.229065 l 1.042548,-1.039477 h -0.741361 l -1.035411,1.039477 h -3.186402 l 0.599102,-1.039477 H 12.522209 L 11.925062,12.056804 10.181754,9.0377526 10.818666,6.6596123 10.317668,6.5247319 9.8146665,8.4018982 Z m 8.0711161,0.6682255 h 0.865349 v 0.4381156 h -1.73075 L 16.771265,6.2639916 H 15.905864 V 5.8258764 h 1.73075 z m -1.033103,2.9206571 h 0.865367 v 0.438125 H 14.87278 L 15.738162,9.1846335 H 14.87278 V 8.746532 h 1.730749 z M 13.30968,8.3085299 h 0.865373 V 8.7466596 H 12.444286 L 13.30968,7.4322979 H 12.444286 V 6.9941822 h 1.730767 z"
     style="fill:#5599ff;fill-opacity:1;stroke:none;stroke-width:0.519238" />
  <path
     d="M 5.6314639,5.6439624 C 2.09414,9.183531 2.1230824,14.960948 5.7182778,18.46388 9.0670356,21.726706 14.463443,21.860077 17.958423,18.754593 21.020749,16.033561 21.833468,11.698366 20.110629,8.1185909 19.903851,7.6889503 19.362531,7.5414392 18.95517,7.7888956 c -0.365233,0.221897 -0.488678,0.6830073 -0.305067,1.069081 1.419525,2.9847424 0.691152,6.6027594 -1.938024,8.8104594 -2.666822,2.239318 -6.623544,2.276995 -9.3302718,0.08615 C 3.9296934,14.96044 3.7318897,9.8600538 6.7884039,6.8016123 9.0159264,4.5726633 12.360886,4.0225944 15.150855,5.3537934 c 0.38354,0.1829865 0.84186,0.057079 1.062365,-0.3063462 l 0.0018,-0.00229 C 16.461295,4.6388228 16.316188,4.0982725 15.888247,3.8918026 12.470768,2.2431635 8.3634813,2.9104433 5.6314998,5.6441541 Z"
     id="path1-0-9-2-6"
     style="fill:#5599ff;fill-opacity:1;stroke-width:0.327327" />
</svg>
