<?xml version="1.0" encoding="UTF-8" standalone="no"?>
<svg
   viewBox="0 0 24.000006 24.000008"
   width="24.000006"
   height="24.000008"
   version="1.1"
   id="svg3"
   sodipodi:docname="system-suspend.svg"
   inkscape:version="1.3.2 (091e20ef0f, 2023-11-25)"
   xmlns:inkscape="http://www.inkscape.org/namespaces/inkscape"
   xmlns:sodipodi="http://sodipodi.sourceforge.net/DTD/sodipodi-0.dtd"
   xmlns="http://www.w3.org/2000/svg"
   xmlns:svg="http://www.w3.org/2000/svg">
  <defs
     id="defs3" />
  <sodipodi:namedview
     id="namedview3"
     pagecolor="#ffffff"
     bordercolor="#000000"
     borderopacity="0.25"
     inkscape:showpageshadow="2"
     inkscape:pageopacity="0.0"
     inkscape:pagecheckerboard="0"
     inkscape:deskcolor="#d1d1d1"
     inkscape:zoom="7.9895833"
     inkscape:cx="11.139505"
     inkscape:cy="-9.0743155"
     inkscape:window-width="1920"
     inkscape:window-height="994"
     inkscape:window-x="0"
     inkscape:window-y="0"
     inkscape:window-maximized="1"
     inkscape:current-layer="svg3" />
  <style
     type="text/css"
     id="current-color-scheme">.ColorScheme-Text { color: #fcfcfc; } </style>
  <path
     style="fill:none;stroke-width:1.11658"
     d="M 0,0 V 24.000007 H 24.000006 V 0 Z"
     id="path69" />
  <path
     d="m 13.089941,14.328276 c -0.725351,0 -1.404682,-0.197725 -1.989122,-0.541906 H 8.2874909 c -0.071028,0 -0.1276281,-0.05813 -0.1276281,-0.127915 0,-0.07112 0.058077,-0.127911 0.1276281,-0.127911 H 10.717709 C 9.7684481,12.810684 9.155126,11.670298 9.155126,10.38876 c 0,-0.9414076 0.3369699,-1.8523587 0.947865,-2.5656961 C 10.507104,7.3524495 11.013965,6.98583 11.577485,6.7498752 8.8800149,6.9660183 6.7500281,9.235155 6.7500281,11.99188 c 0,2.899296 2.3550786,5.258082 5.2499099,5.258082 1.31127,0 2.511825,-0.483797 3.431938,-1.282815 h -4.457487 c -0.07108,0 -0.127729,-0.05808 -0.127729,-0.12792 0,-0.07116 0.05799,-0.127801 0.127729,-0.127801 h 4.732785 c 0.951785,-0.95185 1.542929,-2.267736 1.542929,-3.719339 0,-0.529986 -0.07644,-1.044221 -0.227716,-1.538672 -0.03302,2.1425 -1.785097,3.874921 -3.932209,3.874921 z"
     id="path4-7-1"
     style="color:#d6dbf1;fill:#ffd42a;fill-opacity:1;fill-rule:nonzero;stroke:none;stroke-width:0.0272235;stroke-opacity:1"
     class="ColorScheme-Text" />
  <path
     d="M 5.6314605,5.6439633 C 2.0941382,9.1835327 2.1230807,14.960955 5.7182924,18.463883 9.0670502,21.72671 14.463457,21.860072 17.958436,18.754598 21.020763,16.033567 21.833488,11.698365 20.110643,8.1185888 19.903866,7.6889514 19.362549,7.541445 18.955188,7.7888972 18.589959,8.0107859 18.46651,8.47191 18.650121,8.8579793 20.06964,11.842721 19.341275,15.460737 16.712092,17.668438 14.045276,19.907759 10.088554,19.945432 7.3818201,17.754586 3.9297053,14.960438 3.7319015,9.8600547 6.7884194,6.8016126 9.0159428,4.5726599 12.360899,4.0225908 15.150867,5.353788 c 0.383538,0.1829925 0.841861,0.057069 1.062368,-0.3063447 l 0.0018,-0.0027 C 16.461295,4.6388069 16.316187,4.098257 15.88825,3.8917876 12.47075,2.2431687 8.3634662,2.9104487 5.6314803,5.6441585 Z"
     id="path1-0-9-8-0"
     style="fill:#ffd42a;fill-opacity:1;stroke-width:0.327329" />
</svg>
