<?xml version="1.0" encoding="UTF-8" standalone="no"?>
<svg
   viewBox="0 0 32 32"
   version="1.1"
   id="svg1"
   sodipodi:docname="document-print.svg"
   width="32"
   height="32"
   inkscape:version="1.3.2 (091e20ef0f, 2023-11-25)"
   xmlns:inkscape="http://www.inkscape.org/namespaces/inkscape"
   xmlns:sodipodi="http://sodipodi.sourceforge.net/DTD/sodipodi-0.dtd"
   xmlns:xlink="http://www.w3.org/1999/xlink"
   xmlns="http://www.w3.org/2000/svg"
   xmlns:svg="http://www.w3.org/2000/svg">
  <sodipodi:namedview
     id="namedview1"
     pagecolor="#ffffff"
     bordercolor="#000000"
     borderopacity="0.25"
     inkscape:showpageshadow="2"
     inkscape:pageopacity="0.0"
     inkscape:pagecheckerboard="0"
     inkscape:deskcolor="#d1d1d1"
     inkscape:zoom="4.2150193"
     inkscape:cx="15.776915"
     inkscape:cy="16.251408"
     inkscape:window-width="1920"
     inkscape:window-height="1002"
     inkscape:window-x="0"
     inkscape:window-y="0"
     inkscape:window-maximized="1"
     inkscape:current-layer="svg1" />
  <defs
     id="defs3051">
    <style
       type="text/css"
       id="current-color-scheme">.ColorScheme-Text{color:#232629;}.ColorScheme-Highlight { color: #3daee9; } </style>
    <linearGradient
       inkscape:collect="always"
       xlink:href="#linearGradient1"
       id="linearGradient2"
       x1="5"
       y1="27"
       x2="26"
       y2="5.000001"
       gradientUnits="userSpaceOnUse" />
    <linearGradient
       id="linearGradient1"
       inkscape:collect="always">
      <stop
         style="stop-color:#d42aff;stop-opacity:1"
         offset="0"
         id="stop1" />
      <stop
         style="stop-color:#9955ff;stop-opacity:1"
         offset="1"
         id="stop2" />
    </linearGradient>
  </defs>
  <g
     id="printer"
     style="fill:#d1d5e9;fill-opacity:1">
    <rect
       style="opacity:0.00100002;fill:#d1d5e9;fill-opacity:1"
       width="32"
       height="32"
       x="0"
       y="0"
       id="rect7" />
    <path
       d="M 26,10 H 24 V 6 C 24,5 23,4 22,4 V 4 H 10 V 4 C 9,4 8,5 8,6 v 4 H 5.9838159 C 5.4415797,10 5,10.400841 5,10.945349 V 21 21 c 0,0.546015 0.4170787,1 1,1 h 3 v 5 c 0,0.478245 0.4711778,1 1,1 v 0 h 12 v 0 c 0.562498,0 1,-0.420644 1,-1 v -5 h 3 v 0 c 0.551051,0 1,-0.438067 1,-1 V 11 c 0,-0.491382 -0.399999,-1 -1,-1 z M 9,6 C 9,5.3682028 9.4018308,5 10,5 h 12 v 0 c 0.554691,0.054428 1,0.4427929 1,0.9365881 V 10 H 9 Z m 13,21 v 0 0 H 10.157376 C 9.865914,27 10,26.722981 10,26.434754 V 18 h 12 z m 4,-6 h -3 v -3 c 0,-0.579948 -0.419227,-1 -1,-1 v 0 L 10,17.02508 C 9.2925132,17 9,17.340907 9,18 v 3 H 6 V 11 h 20 z"
       id="path64-3"
       style="color:#d1d5e9;fill:url(#linearGradient2);fill-opacity:1;stroke-width:0.0468578"
       sodipodi:nodetypes="cccccccccccccccccccccccccccccccccscccccssscccccccsssccc"
       class="ColorScheme-Text" />
    <circle
       cx="23"
       cy="14"
       style="color:#d1d5e9;fill:#b380ff;fill-opacity:1;stroke-width:4.00004;stroke-linecap:round;stroke-linejoin:round"
       id="path4292-3-6"
       inkscape:transform-center-x="4.7553391"
       inkscape:transform-center-y="0.63260567"
       r="2"
       class="ColorScheme-Text" />
  </g>
</svg>
