<?xml version="1.0" encoding="UTF-8" standalone="no"?>
<svg
   viewBox="0 0 32 32"
   version="1.1"
   id="svg1"
   sodipodi:docname="system-log-out-rtl.svg"
   inkscape:version="1.3.2 (091e20ef0f, 2023-11-25)"
   width="32"
   height="32"
   xmlns:inkscape="http://www.inkscape.org/namespaces/inkscape"
   xmlns:sodipodi="http://sodipodi.sourceforge.net/DTD/sodipodi-0.dtd"
   xmlns="http://www.w3.org/2000/svg"
   xmlns:svg="http://www.w3.org/2000/svg">
  <sodipodi:namedview
     id="namedview1"
     pagecolor="#ffffff"
     bordercolor="#000000"
     borderopacity="0.25"
     inkscape:showpageshadow="2"
     inkscape:pageopacity="0.0"
     inkscape:pagecheckerboard="0"
     inkscape:deskcolor="#d1d1d1"
     inkscape:zoom="8.7159092"
     inkscape:cx="4.2451108"
     inkscape:cy="23.348109"
     inkscape:window-width="1920"
     inkscape:window-height="994"
     inkscape:window-x="0"
     inkscape:window-y="0"
     inkscape:window-maximized="1"
     inkscape:current-layer="svg1" />
  <defs
     id="defs1">
    <style
       type="text/css"
       id="style1">.ColorScheme-Text {
        color:#d8dee9;
      }</style>
  </defs>
  <path
     d="m 21.153364,11.196023 c -1.88e-4,0.0182 -0.0012,0.03636 -0.0054,0.05431 l -1.014485,6.521974 c -0.0441,0.28875 -0.402254,0.404202 -0.609866,0.196529 l -1.267828,-1.254374 -4.057386,4.013951 c -0.420263,0.415458 -1.101514,0.415458 -1.52179,0 l -1.521501,-1.50554 c -0.420144,-0.415579 -0.420144,-1.089241 0,-1.504842 l 4.058984,-4.013576 -1.268531,-1.254025 c -0.210048,-0.205414 -0.093,-0.559799 0.199116,-0.603071 l 6.595489,-1.003216 c 0.217244,-0.03303 0.413186,0.133136 0.413265,0.350486 z M 20.364117,11.6203 Z"
     id="path8-2"
     style="fill:#b380ff;fill-opacity:1;stroke-width:0.356751"
     sodipodi:nodetypes="ccccccccccccccccccc" />
  <path
     d="m 7.5085772,7.525485 c -4.7163817,4.719371 -4.6777981,12.422526 0.1158015,17.093039 4.4649543,4.350414 11.6600983,4.528232 16.3200113,0.387632 4.083052,-3.628011 5.166681,-9.408227 2.869588,-14.181208 -0.275703,-0.572843 -0.997437,-0.76952 -1.540579,-0.439584 -0.486975,0.295854 -0.651575,0.910667 -0.40677,1.425424 1.892673,3.979607 0.921538,8.803585 -2.584011,11.74717 -3.555704,2.985728 -8.831286,3.035954 -12.4402346,0.114855 C 5.2395957,19.947348 4.9758596,13.146894 9.0511876,9.0690079 12.021183,6.097109 16.481093,5.3636944 20.201012,7.1386104 c 0.511358,0.2439755 1.12247,0.076135 1.416479,-0.4084605 l 0.003,-0.0033 C 21.948598,6.185074 21.755144,5.4643438 21.18454,5.1890598 16.627958,2.9908946 11.151616,3.8805915 7.5090092,7.525499 Z"
     id="path1-0-9-9-6-1"
     style="fill:#b380ff;fill-opacity:1;stroke-width:0.436437" />
</svg>
