<?xml version="1.0" encoding="UTF-8" standalone="no"?>
<svg
   viewBox="0 0 32 32"
   version="1.1"
   id="svg1"
   sodipodi:docname="system-hibernate-symbolic.svg"
   inkscape:version="1.3.2 (091e20ef0f, 2023-11-25)"
   width="32"
   height="32"
   xmlns:inkscape="http://www.inkscape.org/namespaces/inkscape"
   xmlns:sodipodi="http://sodipodi.sourceforge.net/DTD/sodipodi-0.dtd"
   xmlns="http://www.w3.org/2000/svg"
   xmlns:svg="http://www.w3.org/2000/svg">
  <sodipodi:namedview
     id="namedview1"
     pagecolor="#ffffff"
     bordercolor="#000000"
     borderopacity="0.25"
     inkscape:showpageshadow="2"
     inkscape:pageopacity="0.0"
     inkscape:pagecheckerboard="0"
     inkscape:deskcolor="#d1d1d1"
     inkscape:zoom="12.326157"
     inkscape:cx="11.763602"
     inkscape:cy="3.8535936"
     inkscape:window-width="1920"
     inkscape:window-height="994"
     inkscape:window-x="0"
     inkscape:window-y="0"
     inkscape:window-maximized="1"
     inkscape:current-layer="svg1" />
  <defs
     id="defs1">
    <style
       type="text/css"
       id="style1">.ColorScheme-Text {
        color:#d8dee9;
      }</style>
  </defs>
  <path
     d="m 11.923419,8.6517205 -0.837213,0.4835953 1.591187,2.7611772 -2.17358,-0.582391 -0.254822,0.935983 3.11476,0.832007 1.518362,2.631247 H 11.845385 L 9.5678252,13.43579 8.8814222,14.122188 10.472618,15.713362 H 7.2850526 v 0.967209 h 3.1875654 l -1.5911958,1.596375 0.686403,0.681189 2.2775598,-2.277545 h 3.03153 l -1.518368,2.626067 -3.109556,0.837208 0.249602,0.935985 2.178786,-0.587598 -1.596372,2.761166 0.837194,0.4836 1.596376,-2.761178 0.582414,2.178779 0.93601,-0.2496 -0.837211,-3.114744 1.799242,-3.10955 h 0.0046 l 1.799248,3.120068 -0.837199,3.109558 0.936,0.249603 0.582382,-2.173594 1.596384,2.755981 0.8372,-0.483598 -1.59119,-2.761184 2.173593,0.582408 0.254804,-0.930787 -3.114744,-0.837225 -1.518365,-2.63124 h 3.036785 l 2.277556,2.277561 0.686399,-0.681219 -1.591193,-1.596372 h 3.187538 v -0.9672 h -3.187226 l 1.591188,-1.591177 -0.04685,-0.05729 H 21.80842 l -1.653629,1.648419 h -3.036579 l 0.95679,-1.64842 h -1.107583 l -0.967196,1.648419 -0.0045,-0.0045 -1.793987,-3.109248 0.837203,-3.1095587 -0.935995,-0.2547971 -0.582399,2.1787728 z M 22.29746,10.430064 h 1.456076 l -0.03125,0.728011 H 20.841442 L 22.297511,8.9792966 H 20.841446 V 8.2565074 h 2.91201 z m -3.879252,1.939564 h 1.45607 l -0.03125,0.722809 h -2.875653 l 1.450745,-2.173578 h -1.450745 v -0.728023 h 2.906807 z"
     id="path1-0"
     style="fill:#5599ff;fill-opacity:1;stroke-width:1.3312" />
  <path
     d="M 7.5086857,7.5249781 C 2.7921843,12.244476 2.8307692,19.94782 7.6243297,24.61846 c 4.4650893,4.35049 11.6604013,4.528332 16.3204383,0.387618 4.083165,-3.628098 5.166792,-9.408435 2.869653,-14.181536 -0.275712,-0.572865 -0.997485,-0.769563 -1.540647,-0.439611 -0.486993,0.295877 -0.651575,0.910691 -0.406754,1.425457 1.892726,3.979735 0.921545,8.803816 -2.584063,11.747464 -3.555813,2.985795 -8.831519,3.03604 -12.4405471,0.11478 C 5.2395278,19.94708 4.9757861,13.146461 9.0511945,9.0684773 12.02127,6.0965111 16.481278,5.3630705 20.201293,7.1380298 c 0.511396,0.2439863 1.122502,0.076095 1.416507,-0.408474 l 0.0027,-0.0027 C 21.948386,6.1851214 21.754775,5.4643798 21.184303,5.1890743 16.62754,2.9908636 11.151083,3.8806135 7.5083885,7.525592 Z"
     id="path1-0-9-2-6"
     style="fill:#5599ff;fill-opacity:1;stroke-width:0.436437" />
</svg>
