<?xml version="1.0" encoding="UTF-8" standalone="no"?>
<svg
   version="1.1"
   viewBox="0 0 32 32"
   id="svg1"
   sodipodi:docname="system-save-session.svg"
   inkscape:version="1.3.2 (091e20ef0f, 2023-11-25)"
   width="32"
   height="32"
   xmlns:inkscape="http://www.inkscape.org/namespaces/inkscape"
   xmlns:sodipodi="http://sodipodi.sourceforge.net/DTD/sodipodi-0.dtd"
   xmlns="http://www.w3.org/2000/svg"
   xmlns:svg="http://www.w3.org/2000/svg">
  <sodipodi:namedview
     id="namedview1"
     pagecolor="#ffffff"
     bordercolor="#000000"
     borderopacity="0.25"
     inkscape:showpageshadow="2"
     inkscape:pageopacity="0.0"
     inkscape:pagecheckerboard="0"
     inkscape:deskcolor="#d1d1d1"
     inkscape:zoom="17.431818"
     inkscape:cx="9.5801826"
     inkscape:cy="15.230769"
     inkscape:window-width="1920"
     inkscape:window-height="994"
     inkscape:window-x="0"
     inkscape:window-y="0"
     inkscape:window-maximized="1"
     inkscape:current-layer="svg1" />
  <defs
     id="defs1">
    <style
       type="text/css"
       id="style1">.ColorScheme-Text {
        color:#d8dee9;
      }</style>
  </defs>
  <path
     d="M 7,4 C 5.338,4 4,5.338 4,7 v 18 c 0,1.662 1.338,3 3,3 h 18 c 1.662,0 3,-1.338 3,-3 V 10 L 22,4 Z m 0,1.5 h 3 V 10 c 0,1.662 1.338,3 3,3 h 6 c 1.662,0 3,-1.338 3,-3 V 6.1211498 L 26.5,10.62115 V 25 c 0,0.830994 -0.669006,1.5 -1.5,1.5 v -3 c 0,-1.662 -1.338,-3 -3,-3 H 10 c -1.662,0 -3,1.338 -3,3 v 3 C 6.169,26.5 5.5,25.830994 5.5,25 V 7 C 5.5,6.169 6.169,5.5 7,5.5 Z m 4.5,0 H 16 v 6 h -3 c -0.831,0 -1.5,-0.669 -1.5,-1.5 z M 10,22.000001 h 12 c 0.831006,0 1.51965,0.66922 1.5,1.499999 v 3 h -15 v -3 C 8.5,22.669006 9.169,22 10,22.000001 Z"
     id="path1"
     style="fill:#00ccff;stroke-width:1.5" />
</svg>
