<?xml version="1.0" encoding="UTF-8" standalone="no"?>
<svg
   viewBox="0 0 32 32"
   version="1.1"
   id="svg1"
   sodipodi:docname="system-users.svg"
   inkscape:version="1.3.2 (091e20ef0f, 2023-11-25)"
   width="32"
   height="32"
   xmlns:inkscape="http://www.inkscape.org/namespaces/inkscape"
   xmlns:sodipodi="http://sodipodi.sourceforge.net/DTD/sodipodi-0.dtd"
   xmlns="http://www.w3.org/2000/svg"
   xmlns:svg="http://www.w3.org/2000/svg">
  <sodipodi:namedview
     id="namedview1"
     pagecolor="#ffffff"
     bordercolor="#000000"
     borderopacity="0.25"
     inkscape:showpageshadow="2"
     inkscape:pageopacity="0.0"
     inkscape:pagecheckerboard="0"
     inkscape:deskcolor="#d1d1d1"
     inkscape:zoom="17.431818"
     inkscape:cx="15.488918"
     inkscape:cy="18.500652"
     inkscape:window-width="1920"
     inkscape:window-height="994"
     inkscape:window-x="0"
     inkscape:window-y="0"
     inkscape:window-maximized="1"
     inkscape:current-layer="svg1" />
  <defs
     id="defs1">
    <style
       type="text/css"
       id="style1">.ColorScheme-Text {
        color:#d8dee9;
      }</style>
  </defs>
  <path
     d="M 20.5,4 C 18.007013,4 16,6.007 16,8.5 16,10.993 18.007013,13 20.5,13 22.992987,13 25,10.993 25,8.5 25,6.007 22.992987,4 20.5,4 Z m -9,4.5 C 9.007,8.5 7,10.507 7,13 c 0,2.492987 2.007,4.5 4.5,4.5 2.493005,0 4.5,-2.007013 4.5,-4.5 0,-2.493 -2.006995,-4.5 -4.5,-4.5 z m 9,6 c -0.969523,0 -1.884,0.201228 -2.7276,0.541997 l 0.682607,1.371073 C 19.09674,16.17232 19.771677,16 20.49998,16 c 3.324,0 6,2.676 6,6 h -5.25 l 0.75,1.5 h 6 V 22 c 0,-4.154987 -3.345013,-7.5 -7.5,-7.5 z m -9,4.5 C 7.345,19 4,22.345013 4,26.5 V 28 H 19 V 26.5 C 19,22.345013 15.655013,19 11.5,19 Z m 0,1.5 c 3.324,0 6,2.676 6,6 h -12 c 0,-3.324 2.676,-6 6,-6 z"
     id="path1"
     style="fill:#00cccc;fill-opacity:1;stroke-width:1.5" />
</svg>
