<?xml version="1.0" encoding="UTF-8" standalone="no"?>
<svg
   viewBox="0 0 32 32"
   version="1.1"
   id="svg1"
   sodipodi:docname="system-shutdown.svg"
   inkscape:version="1.3.2 (091e20ef0f, 2023-11-25)"
   width="32"
   height="32"
   xmlns:inkscape="http://www.inkscape.org/namespaces/inkscape"
   xmlns:sodipodi="http://sodipodi.sourceforge.net/DTD/sodipodi-0.dtd"
   xmlns="http://www.w3.org/2000/svg"
   xmlns:svg="http://www.w3.org/2000/svg">
  <sodipodi:namedview
     id="namedview1"
     pagecolor="#ffffff"
     bordercolor="#000000"
     borderopacity="0.25"
     inkscape:showpageshadow="2"
     inkscape:pageopacity="0.0"
     inkscape:pagecheckerboard="0"
     inkscape:deskcolor="#d1d1d1"
     inkscape:zoom="12.326157"
     inkscape:cx="0.56789801"
     inkscape:cy="19.916994"
     inkscape:window-width="1920"
     inkscape:window-height="994"
     inkscape:window-x="0"
     inkscape:window-y="0"
     inkscape:window-maximized="1"
     inkscape:current-layer="svg1" />
  <defs
     id="defs1">
    <style
       type="text/css"
       id="style1">.ColorScheme-Text {
        color:#d8dee9;
      }</style>
  </defs>
  <path
     d="M 7.5085552,7.5255968 C 2.7922059,12.244939 2.8307941,19.948057 7.6243235,24.618563 c 4.4649375,4.350366 11.6600255,4.528182 16.3199295,0.387617 4.083044,-3.627993 5.166647,-9.408176 2.869554,-14.181134 -0.275691,-0.572842 -0.997432,-0.769517 -1.54057,-0.43958 -0.486972,0.295844 -0.651566,0.910659 -0.406758,1.425418 1.892664,3.97959 0.921529,8.803542 -2.583987,11.7471 -3.555704,2.985714 -8.831241,3.035935 -12.4401755,0.114825 C 5.2395715,19.947356 4.975833,13.146936 9.0511293,9.0690834 12.021115,6.0971963 16.480993,5.3637835 20.200891,7.1386826 c 0.511363,0.2439843 1.122459,0.07608 1.416463,-0.4084549 l 0.003,-0.00332 C 21.948746,6.1850578 21.75529,5.4643409 21.184691,5.1890525 16.628038,2.9908992 11.151739,3.8805952 7.5091435,7.5254768 Z"
     id="path1-0-4"
     style="fill:#c83771;stroke-width:0.436435" />
  <path
     d="m 10.697124,16.8157 c -0.01915,-0.11529 -0.03479,-0.231624 -0.04693,-0.349053 0.0076,0.06981 0.01392,0.138345 0.02147,0.208107 -0.05402,-0.530124 -0.04066,-1.065584 0.03738,-1.592507 -0.01101,0.06931 -0.02082,0.13749 -0.03182,0.206805 0.08162,-0.53032 0.231268,-1.046231 0.446408,-1.538523 -0.02828,0.06542 -0.05659,0.130841 -0.08482,0.193935 0.219944,-0.499133 0.504077,-0.968869 0.84628,-1.396613 -0.04546,0.05688 -0.09209,0.114893 -0.137606,0.171751 0.345712,-0.428801 0.744687,-0.808792 1.189795,-1.133135 -0.05903,0.04256 -0.1192,0.0864 -0.178247,0.129039 0.448621,-0.325425 0.93744,-0.589573 1.45471,-0.785766 -0.06672,0.02512 -0.133402,0.05007 -0.197787,0.07524 0.493818,-0.185173 1.010351,-0.305997 1.535738,-0.36284 -0.06977,0.0084 -0.138285,0.01395 -0.208038,0.0216 0.526455,-0.05334 1.057053,-0.04047 1.580221,0.0383 -0.06922,-0.01158 -0.13743,-0.02066 -0.206713,-0.03176 0.52198,0.07992 1.030681,0.226799 1.516981,0.435748 -0.06534,-0.02825 -0.13074,-0.05649 -0.193797,-0.08472 0.506874,0.221039 0.98424,0.508635 1.414974,0.854231 -0.05685,-0.04539 -0.114735,-0.09213 -0.171598,-0.137542 0.428401,0.345552 0.807951,0.744415 1.131868,1.189472 -0.04256,-0.05896 -0.08627,-0.119157 -0.12891,-0.17823 0.324981,0.448576 0.588699,0.937404 0.783261,1.455867 -0.02505,-0.06667 -0.04994,-0.133421 -0.07503,-0.197809 0.184731,0.493885 0.305165,1.010545 0.36042,1.537225 -0.0075,-0.06979 -0.01365,-0.13833 -0.02141,-0.208109 0.05301,0.526629 0.03965,1.057443 -0.03939,1.580867 0.01155,-0.06926 0.02081,-0.137505 0.03186,-0.206813 -0.08033,0.522239 -0.227422,1.031252 -0.437757,1.516694 0.02821,-0.06538 0.05649,-0.13077 0.08486,-0.193929 -0.221314,0.507226 -0.51025,0.983794 -0.85603,1.414944 0.0454,-0.05688 0.0922,-0.11484 0.13761,-0.171771 -0.345708,0.428812 -0.745806,0.807609 -1.189794,1.13314 0.05898,-0.04258 0.11925,-0.08641 0.17826,-0.12906 -0.442689,0.31976 -0.924501,0.58178 -1.43595,0.776936 0.06666,-0.02501 0.13341,-0.04999 0.197791,-0.07524 -0.500877,0.189637 -1.025622,0.313749 -1.557943,0.370416 0.06977,-0.0075 0.138285,-0.0138 0.20803,-0.02163 -0.528769,0.05338 -1.059378,0.04032 -1.584855,-0.03848 0.0693,0.01185 0.137445,0.02069 0.206715,0.03174 -0.133935,-0.02188 -0.267792,-0.04605 -0.399232,-0.07473 0.112575,0.460804 0.225096,0.921615 0.336496,1.381239 0.0055,-0.0059 0.0132,-0.0123 0.01902,-0.01802 0.151983,-0.144735 0.249027,-0.363887 0.255413,-0.573632 0.0053,-0.201669 -0.07818,-0.443745 -0.226508,-0.585351 -0.152895,-0.14634 -0.354135,-0.257922 -0.573301,-0.255127 -0.218023,0.0046 -0.423771,0.0732 -0.585263,0.227011 -0.0058,0.0059 -0.01306,0.01245 -0.01902,0.01807 -0.208984,0.199034 -0.298842,0.50186 -0.23282,0.782937 0.06395,0.271766 0.289164,0.537011 0.570452,0.599498 1.216374,0.264928 2.509593,0.237159 3.698292,-0.154976 1.080006,-0.356493 2.076625,-0.948111 2.872555,-1.767252 0.795885,-0.816829 1.394706,-1.819347 1.719933,-2.914332 0.335292,-1.127199 0.374916,-2.343907 0.126525,-3.492237 C 22.597711,13.374652 22.063843,12.330729 21.326431,11.4535 20.961649,11.020227 20.535173,10.643428 20.079877,10.307652 19.619993,9.9694298 19.116364,9.7113636 18.589733,9.4933182 18.0493,9.2703071 17.490278,9.1419278 16.913882,9.0595196 c -0.593688,-0.086294 -1.182955,-0.07044 -1.775766,-0.00613 -0.51261,0.05604 -1.017573,0.177097 -1.49968,0.3579166 -0.534729,0.1992429 -1.043828,0.4397126 -1.51675,0.7633808 -0.468224,0.321476 -0.906064,0.679632 -1.286413,1.10297 -0.379158,0.422209 -0.719857,0.882467 -0.9885236,1.382733 -0.5568442,1.039488 -0.8597385,2.215027 -0.8463237,3.397079 0.00342,0.379304 0.04128,0.761768 0.102663,1.135523 0.033235,0.201432 0.2064951,0.412063 0.3755255,0.51358 0.1690594,0.101475 0.418231,0.14931 0.6108638,0.0948 0.206647,-0.05879 0.409088,-0.18142 0.513638,-0.376041 0.104532,-0.19461 0.129124,-0.39 0.09404,-0.61003 z"
     id="path2-2-8"
     style="fill:#c83771;stroke-width:0.0163921" />
  <path
     d="M 6.4209475,26.223733 15.832315,17.55982 c 0.232063,-0.213629 0.25126,-0.840233 -0.122595,-1.246341 -0.373854,-0.406109 -1.073432,-0.371028 -1.305496,-0.157395 l -9.3378385,8.596225 c -0.2320661,0.213635 -0.2512195,0.840192 0.1226415,1.246301 0.3738573,0.406113 0.9998561,0.438762 1.2319185,0.225123 z"
     id="path2653-4-7"
     style="fill:#c83771;fill-opacity:0.986348;stroke-width:0.377953"
     sodipodi:nodetypes="sssssss" />
</svg>
