<?xml version="1.0" encoding="UTF-8" standalone="no"?>
<svg
   viewBox="0 0 32 32"
   version="1.1"
   id="svg1"
   sodipodi:docname="system-reboot.svg"
   inkscape:version="1.3.2 (091e20ef0f, 2023-11-25)"
   width="32"
   height="32"
   xmlns:inkscape="http://www.inkscape.org/namespaces/inkscape"
   xmlns:sodipodi="http://sodipodi.sourceforge.net/DTD/sodipodi-0.dtd"
   xmlns="http://www.w3.org/2000/svg"
   xmlns:svg="http://www.w3.org/2000/svg">
  <sodipodi:namedview
     id="namedview1"
     pagecolor="#ffffff"
     bordercolor="#000000"
     borderopacity="0.25"
     inkscape:showpageshadow="2"
     inkscape:pageopacity="0.0"
     inkscape:pagecheckerboard="0"
     inkscape:deskcolor="#d1d1d1"
     inkscape:zoom="17.431818"
     inkscape:cx="7.9739245"
     inkscape:cy="13.567145"
     inkscape:window-width="1920"
     inkscape:window-height="994"
     inkscape:window-x="0"
     inkscape:window-y="0"
     inkscape:window-maximized="1"
     inkscape:current-layer="svg1"
     showgrid="true">
    <inkscape:grid
       id="grid1"
       units="px"
       originx="0"
       originy="0"
       spacingx="1"
       spacingy="1"
       empcolor="#0099e5"
       empopacity="0.30196078"
       color="#0099e5"
       opacity="0.14902"
       empspacing="5"
       dotted="false"
       gridanglex="30"
       gridanglez="30"
       visible="true" />
  </sodipodi:namedview>
  <defs
     id="defs1">
    <style
       type="text/css"
       id="style1">.ColorScheme-Text {
        color:#d8dee9;
      }
      .ColorScheme-Highlight {
        color:#88c0d0;
      }</style>
  </defs>
  <path
     d="m 20.942976,24.561858 v 0 c 0.499501,-0.285124 1.139517,-0.112364 1.428004,0.384992 v 0 c 0.288503,0.497345 0.117027,1.135506 -0.383007,1.423126 v 0 c -1.943488,1.117525 -4.160007,1.667801 -6.397026,1.591397 -2.028496,-0.06892 -4.008003,-0.652634 -5.7525093,-1.692266 v 0 C 9.344437,25.97349 9.1839353,25.33234 9.4799379,24.838993 v 0 c 0.2965015,-0.493341 0.9380041,-0.653642 1.4325061,-0.35803 v 0 c 1.437508,0.862364 3.07051,1.340233 4.749519,1.397658 1.851506,0.06291 3.678001,-0.390988 5.281013,-1.316763 z m 3.931032,-12.99387 v 0 c -0.259023,-0.515324 -0.05052,-1.142498 0.46549,-1.399656 v 0 c 0.515999,-0.2571605 1.142499,-0.04795 1.399014,0.46738 v 0 c 0.893994,1.782152 1.322495,3.762547 1.254493,5.756911 -0.05203,1.520502 -0.390001,3.015527 -1.001509,4.402705 v 0 C 26.760505,21.322622 26.143987,21.563307 25.616,21.33211 v 0 c -0.528019,-0.230692 -0.76901,-0.84638 -0.537503,-1.373685 v 0 c 0.508995,-1.145493 0.786004,-2.381864 0.828504,-3.636702 0.05642,-1.64583 -0.300011,-3.279183 -1.032993,-4.753735 z M 11.70545,7.063426 v 0 C 11.186944,7.3105979 10.562942,7.090892 10.31244,6.5730714 v 0 C 10.062439,6.0552531 10.27995,5.4315758 10.798442,5.1819054 v 0 c 1.746012,-0.8373958 3.670511,-1.2408639 5.61052,-1.1749513 1.8665,0.06342 3.698026,0.558764 5.33753,1.4540836 v 0 c 0.506487,0.2761353 0.692978,0.9107993 0.416484,1.4166317 v 0 c -0.276483,0.505334 -0.912004,0.6915887 -1.4185,0.4154508 v 0 C 19.391485,6.5535958 17.880968,6.1426386 16.337966,6.0897072 14.736959,6.0352745 13.148947,6.367342 11.70545,7.063426 Z M 6.5949277,19.125525 v 0 c 0.1834998,0.544279 -0.1114966,1.134987 -0.6580015,1.317759 v 0 C 5.3904217,20.626042 4.7979209,20.329917 4.6149204,19.783152 v 0 C 4.1654169,18.42794 3.958415,17.002825 4.0069163,15.5757 4.0714158,13.690683 4.5779195,11.841628 5.4959242,10.188805 v 0 C 5.7724253,9.6859679 6.406426,9.5042069 6.9114284,9.783338 v 0 c 0.5050017,0.279135 0.6880018,0.913799 0.408502,1.416632 v 0 c -0.756503,1.366197 -1.1740049,2.889694 -1.2275066,4.44664 -0.039998,1.182438 0.1285106,2.355893 0.5025039,3.478915 z M 20.055517,5.9973553 Z M 8.6809327,22.856607 C 8.6614314,23.431348 8.1784321,23.882256 7.6029305,23.862778 7.0269287,23.842832 6.5759262,23.360445 6.5954267,22.785699 6.614931,22.210953 7.09843,21.760053 7.6739316,21.779526 c 0.5755001,0.01949 1.0270026,0.502334 1.0070011,1.077081 z m 16.7045623,0.568746 c 0.01951,-0.574741 -0.432008,-1.0571 -1.00751,-1.077078 -0.575493,-0.01949 -1.058508,0.431427 -1.078496,1.006173 -0.01951,0.574743 0.432002,1.057604 1.007518,1.077079 0.575489,0.01948 1.058985,-0.43143 1.078488,-1.006174 z M 9.4324371,7.8828445 C 9.4519375,7.3081016 9.0009345,6.8252401 8.4254327,6.8057652 7.8494314,6.7862911 7.3664289,7.2371943 7.3469307,7.8119374 7.3269265,8.3866796 7.7784311,8.8690438 8.3539321,8.8890188 8.9299354,8.9084922 9.4129357,8.457587 9.4324371,7.8828445 Z"
     fill-rule="evenodd"
     id="path8-4-9"
     style="isolation:isolate;fill:#00ccff;fill-opacity:1;stroke-width:0.499685"
     sodipodi:nodetypes="sssssscsssssscssssssscsssssscsssssssssssssscssssssscsssssscscccccccsscscccsscccs" />
  <path
     d="m 10.000016,16.009321 c 0,3.304105 2.691545,5.992088 6.000019,5.992088 3.308479,0 6.000008,-2.687983 6.000008,-5.992088 0,-3.304117 -2.691529,-5.992101 -6.000008,-5.992101 -3.308473,0 -6.000019,2.687984 -6.000019,5.992101 z m 6.000019,-4.445751 c 2.454518,0 4.451635,1.994474 4.451635,4.445751 0,2.451272 -1.997117,4.445745 -4.451635,4.445745 -2.454515,0 -4.451626,-1.994472 -4.451626,-4.445745 0,-2.451279 1.997111,-4.445754 4.451626,-4.445751 z"
     id="path1-1-9-2"
     style="fill:#00ccff;stroke-width:0.386852" />
  <path
     d="M 22.592939,7.7709471 C 22.5471,7.8430093 22.474393,7.8937905 22.391042,7.9121719 L 19.050789,8.3836694 C 18.728415,8.4095557 18.120865,8.0548988 18.477377,7.4960022 l 1.100384,-1.7238155 0.955484,-1.4967728 c 0.133463,-0.2089754 0.343724,-0.6401857 0.647381,-0.7079592 v 0 c 0.303992,-0.067272 0.604975,0.1242858 0.672205,0.427897 l 0.783075,3.5332729 c 0.01857,0.083241 0.0021,0.1704809 -0.04292,0.2423621 z"
     id="path4-3-75-3-6-2-6"
     style="color:#d6dbf1;fill:#00ccff;fill-opacity:1;stroke-width:0.160963"
     sodipodi:nodetypes="ccccccssccc" />
</svg>
