<?xml version="1.0" encoding="UTF-8" standalone="no"?>
<svg
   viewBox="0 0 32 32"
   version="1.1"
   id="svg1"
   sodipodi:docname="system-suspend.svg"
   inkscape:version="1.3.2 (091e20ef0f, 2023-11-25)"
   width="32"
   height="32"
   xmlns:inkscape="http://www.inkscape.org/namespaces/inkscape"
   xmlns:sodipodi="http://sodipodi.sourceforge.net/DTD/sodipodi-0.dtd"
   xmlns="http://www.w3.org/2000/svg"
   xmlns:svg="http://www.w3.org/2000/svg">
  <sodipodi:namedview
     id="namedview1"
     pagecolor="#ffffff"
     bordercolor="#000000"
     borderopacity="0.25"
     inkscape:showpageshadow="2"
     inkscape:pageopacity="0.0"
     inkscape:pagecheckerboard="0"
     inkscape:deskcolor="#d1d1d1"
     inkscape:zoom="12.326157"
     inkscape:cx="16.469042"
     inkscape:cy="16.83412"
     inkscape:window-width="1920"
     inkscape:window-height="994"
     inkscape:window-x="0"
     inkscape:window-y="0"
     inkscape:window-maximized="1"
     inkscape:current-layer="svg1" />
  <defs
     id="defs1">
    <style
       type="text/css"
       id="style1">.ColorScheme-Text {
        color:#d8dee9;
      }</style>
  </defs>
  <path
     d="m 17.453261,19.10436 c -0.96714,0 -1.87291,-0.263621 -2.652168,-0.722534 h -3.751104 c -0.0947,0 -0.17017,-0.07749 -0.17017,-0.170556 0,-0.0948 0.07743,-0.170543 0.17017,-0.170543 h 3.240291 c -1.265681,-0.95982 -2.083443,-2.480328 -2.083443,-4.189046 0,-1.255211 0.449293,-2.469814 1.263819,-3.42093 0.538818,-0.6274856 1.214633,-1.1163119 1.96599,-1.4309179 -3.596625,0.2881905 -6.4366081,3.3137059 -6.4366081,6.9893369 0,3.865737 3.1401061,7.010788 6.9998821,7.010788 1.748363,0 3.349102,-0.64507 4.575917,-1.710428 h -5.943315 c -0.09477,0 -0.170307,-0.07746 -0.170307,-0.170558 0,-0.09487 0.07733,-0.170403 0.170307,-0.170403 h 6.310386 c 1.269047,-1.269135 2.057234,-3.023649 2.057234,-4.95912 0,-0.70665 -0.101985,-1.392294 -0.303619,-2.051562 -0.04404,2.856663 -2.380136,5.166561 -5.242956,5.166561 z"
     id="path4-7-1"
     style="color:#d6dbf1;fill:#ffd42a;fill-opacity:1;fill-rule:nonzero;stroke:none;stroke-width:0.0362984;stroke-opacity:1"
     class="ColorScheme-Text" />
  <path
     d="M 7.5086146,7.5252825 C 2.7921842,12.24471 2.8307738,19.947943 7.6243903,24.618519 c 4.4650117,4.350425 11.6602157,4.528244 16.3202017,0.387606 4.083101,-3.628032 5.166731,-9.408304 2.869609,-14.18134 -0.275706,-0.57285 -0.997462,-0.769526 -1.540617,-0.43959 -0.486972,0.295852 -0.651562,0.910684 -0.406746,1.425444 1.892687,3.979659 0.921528,8.803678 -2.584046,11.74728 -3.555756,2.985759 -8.831385,3.035988 -12.4403632,0.11484 C 5.2396072,19.947244 4.9758691,13.14674 9.0512273,9.068816 12.021259,6.0968784 16.481201,5.3634524 20.201158,7.1383827 c 0.511382,0.2439896 1.122483,0.076095 1.416485,-0.4084603 l 0.0028,-0.0036 C 21.948378,6.1850819 21.754908,5.4643489 21.184323,5.189056 16.62767,2.9908891 11.15129,3.8805968 7.5086413,7.5255437 Z"
     id="path1-0-9-8-0"
     style="fill:#ffd42a;fill-opacity:1;stroke-width:0.43644" />
</svg>
